<svg width="14" height="14" viewBox="0 0 14 14" fill="none" xmlns="http://www.w3.org/2000/svg">
<g clip-path="url(#clip0_1230_13584)">
<path d="M2.8002 5.59992C2.79981 4.72727 3.07126 3.87617 3.57681 3.16488C4.08237 2.45359 4.79692 1.91744 5.6212 1.63092C5.58928 1.43094 5.60112 1.22641 5.65592 1.03145C5.71071 0.836489 5.80715 0.655737 5.93858 0.501665C6.07001 0.347593 6.2333 0.223869 6.41719 0.139029C6.60108 0.0541895 6.80118 0.0102539 7.0037 0.0102539C7.20621 0.0102539 7.40631 0.0541895 7.5902 0.139029C7.77409 0.223869 7.93738 0.347593 8.06881 0.501665C8.20024 0.655737 8.29668 0.836489 8.35147 1.03145C8.40627 1.22641 8.41812 1.43094 8.3862 1.63092C9.20916 1.91861 9.9222 2.45527 10.4264 3.16646C10.9307 3.87765 11.2011 4.72812 11.2002 5.59992V9.79992L13.3002 11.1999V11.8999H0.700195V11.1999L2.8002 9.79992V5.59992ZM8.4002 12.5999C8.4002 12.9712 8.2527 13.3273 7.99015 13.5899C7.72759 13.8524 7.3715 13.9999 7.0002 13.9999C6.62889 13.9999 6.2728 13.8524 6.01025 13.5899C5.7477 13.3273 5.6002 12.9712 5.6002 12.5999H8.4002Z" fill="white"/>
</g>
<defs>
<clipPath id="clip0_1230_13584">
<rect width="14" height="14" fill="white"/>
</clipPath>
</defs>
</svg>
