<svg width="21" height="21" viewBox="0 0 21 21" fill="none" xmlns="http://www.w3.org/2000/svg">
<circle cx="10.5" cy="10.5" r="10.5" fill="#27AE60"/>
<path d="M10.5 13.3594C10.4167 13.3594 10.336 13.3437 10.2581 13.3125C10.1798 13.2812 10.1146 13.2396 10.0625 13.1875L7.1875 10.3125C7.07292 10.1979 7.01562 10.0521 7.01562 9.875C7.01562 9.69792 7.07292 9.55208 7.1875 9.4375C7.30208 9.32292 7.44792 9.26562 7.625 9.26562C7.80208 9.26562 7.94792 9.32292 8.0625 9.4375L10.5 11.875L12.9375 9.4375C13.0521 9.32292 13.1979 9.26562 13.375 9.26562C13.5521 9.26562 13.6979 9.32292 13.8125 9.4375C13.9271 9.55208 13.9844 9.69792 13.9844 9.875C13.9844 10.0521 13.9271 10.1979 13.8125 10.3125L10.9375 13.1875C10.875 13.25 10.8073 13.2942 10.7344 13.32C10.6615 13.3462 10.5833 13.3594 10.5 13.3594Z" fill="white"/>
</svg>
