<?xml version="1.0" encoding="utf-8"?>
<!-- Generator: Adobe Illustrator 24.1.3, SVG Export Plug-In . SVG Version: 6.00 Build 0)  -->
<svg version="1.1" id="Layer_1" xmlns="http://www.w3.org/2000/svg" xmlns:xlink="http://www.w3.org/1999/xlink" x="0px" y="0px"
	 viewBox="0 0 21 21" style="enable-background:new 0 0 21 21;" xml:space="preserve">
<style type="text/css">
	.st0{fill:#27AE60;}
	.st1{fill:#FFFFFF;}
</style>
<circle class="st0" cx="10.5" cy="10.5" r="10.5"/>
<path class="st1" d="M10.6,9.3c0.1,0,0.2,0,0.2,0.1c0.1,0,0.1,0.1,0.2,0.1l2.8,3c0.1,0.1,0.2,0.3,0.2,0.4c0,0.2-0.1,0.3-0.2,0.4
	c-0.1,0.1-0.3,0.2-0.4,0.2s-0.3-0.1-0.4-0.2l-2.4-2.5L8,13.1c-0.1,0.1-0.3,0.2-0.4,0.2c-0.2,0-0.3-0.1-0.4-0.2C7,13,7,12.8,7,12.6
	c0-0.2,0.1-0.3,0.2-0.4l3-2.8c0.1-0.1,0.1-0.1,0.2-0.1C10.4,9.3,10.5,9.3,10.6,9.3z"/>
</svg>
