<svg width="14" height="14" viewBox="0 0 14 14" fill="none" xmlns="http://www.w3.org/2000/svg">
<path d="M10.4998 12.8333C10.8207 12.8333 11.0952 12.7191 11.3235 12.4908C11.5522 12.2622 11.6665 11.9874 11.6665 11.6666V5.83325C11.6665 5.51242 11.5522 5.23767 11.3235 5.009C11.0952 4.78072 10.8207 4.66658 10.4998 4.66658H5.24984V3.49992C5.24984 3.01381 5.41998 2.60061 5.76025 2.26034C6.10053 1.92006 6.51373 1.74992 6.99984 1.74992C7.39845 1.74992 7.75078 1.86892 8.05684 2.10692C8.36328 2.34531 8.56998 2.64436 8.67692 3.00409C8.72553 3.14992 8.80078 3.26892 8.90267 3.36109C9.00495 3.45364 9.12414 3.49992 9.26025 3.49992C9.4547 3.49992 9.61025 3.4342 9.72692 3.30275C9.84359 3.1717 9.88248 3.02353 9.84359 2.85825C9.69775 2.20686 9.36234 1.66475 8.83734 1.23192C8.31234 0.799474 7.69984 0.583252 6.99984 0.583252C6.19289 0.583252 5.50495 0.86753 4.936 1.43609C4.36745 2.00503 4.08317 2.69297 4.08317 3.49992V4.66658H3.49984C3.179 4.66658 2.90425 4.78072 2.67559 5.009C2.44731 5.23767 2.33317 5.51242 2.33317 5.83325V11.6666C2.33317 11.9874 2.44731 12.2622 2.67559 12.4908C2.90425 12.7191 3.179 12.8333 3.49984 12.8333H10.4998ZM6.99984 9.91658C6.679 9.91658 6.40425 9.80245 6.17559 9.57417C5.94731 9.3455 5.83317 9.07075 5.83317 8.74992C5.83317 8.42908 5.94731 8.15434 6.17559 7.92567C6.40425 7.69739 6.679 7.58325 6.99984 7.58325C7.32067 7.58325 7.59523 7.69739 7.8235 7.92567C8.05217 8.15434 8.1665 8.42908 8.1665 8.74992C8.1665 9.07075 8.05217 9.3455 7.8235 9.57417C7.59523 9.80245 7.32067 9.91658 6.99984 9.91658Z" fill="white"/>
</svg>
