<svg width="12" height="12" viewBox="0 0 12 12" fill="none" xmlns="http://www.w3.org/2000/svg">
<path d="M5.7704 8.31883L3.99123 9.67725C3.90308 9.74938 3.8069 9.78352 3.70272 9.77967C3.59853 9.77583 3.50637 9.74569 3.42623 9.68927C3.34608 9.63317 3.28405 9.55704 3.24014 9.46087C3.19622 9.3647 3.19413 9.26051 3.23388 9.14831L3.9191 6.92435L2.176 5.68615C2.07983 5.62203 2.01972 5.53788 1.99568 5.4337C1.97164 5.32951 1.97565 5.23334 2.0077 5.14519C2.03976 5.05703 2.09586 4.97881 2.176 4.91053C2.25614 4.84225 2.35232 4.80827 2.46452 4.80859H4.61635L5.31359 2.50048C5.35366 2.38828 5.41585 2.30205 5.50016 2.24178C5.58447 2.18151 5.67455 2.15154 5.7704 2.15186C5.86657 2.15186 5.95681 2.18199 6.04112 2.24226C6.12543 2.30253 6.18746 2.3886 6.22721 2.50048L6.92445 4.80859H9.07628C9.18848 4.80859 9.28465 4.84273 9.3648 4.91101C9.44494 4.97929 9.50104 5.05735 9.5331 5.14519C9.56515 5.23334 9.56916 5.32951 9.54512 5.4337C9.52108 5.53788 9.46097 5.62203 9.3648 5.68615L7.62169 6.92435L8.30691 9.14831C8.34698 9.26051 8.34506 9.3647 8.30114 9.46087C8.25723 9.55704 8.19503 9.63317 8.11457 9.68927C8.03443 9.74537 7.94226 9.77551 7.83808 9.77967C7.73389 9.78384 7.63772 9.7497 7.54957 9.67725L5.7704 8.31883Z" fill="#F2994A"/>
</svg>
