<svg width="16" height="16" viewBox="0 0 16 16" fill="none" xmlns="http://www.w3.org/2000/svg">
<path d="M8.00022 12.1834L5.23355 13.85C5.11133 13.9278 4.98355 13.9612 4.85022 13.95C4.71689 13.9389 4.60022 13.8945 4.50022 13.8167C4.40022 13.7389 4.32244 13.6416 4.26689 13.5247C4.21133 13.4078 4.20022 13.2774 4.23355 13.1334L4.96689 9.98338L2.51689 7.86672C2.40577 7.76672 2.33644 7.65272 2.30889 7.52472C2.28133 7.39672 2.28955 7.27183 2.33355 7.15005C2.378 7.02783 2.44466 6.92783 2.53355 6.85005C2.62244 6.77227 2.74466 6.72227 2.90022 6.70005L6.13355 6.41672L7.38355 3.45005C7.43911 3.31672 7.52533 3.21672 7.64222 3.15005C7.75911 3.08338 7.87844 3.05005 8.00022 3.05005C8.12244 3.05005 8.24178 3.08338 8.35822 3.15005C8.47466 3.21672 8.56089 3.31672 8.61689 3.45005L9.86689 6.41672L13.1002 6.70005C13.2558 6.72227 13.378 6.77227 13.4669 6.85005C13.5558 6.92783 13.6224 7.02783 13.6669 7.15005C13.7113 7.27227 13.7198 7.39738 13.6922 7.52538C13.6647 7.65338 13.5951 7.76716 13.4836 7.86672L11.0336 9.98338L11.7669 13.1334C11.8002 13.2778 11.7891 13.4085 11.7336 13.5254C11.678 13.6423 11.6002 13.7394 11.5002 13.8167C11.4002 13.8945 11.2836 13.9389 11.1502 13.95C11.0169 13.9612 10.8891 13.9278 10.7669 13.85L8.00022 12.1834Z" fill="white"/>
</svg>
